<svg xmlns="http://www.w3.org/2000/svg" viewBox="0 0 512 512" width="100%" height="100%">
  <rect width="512" height="512" rx="96" fill="#fdfbf7"/>
  <!-- Hard Sketch Offset Shadow -->
  <path d="M125 140 C125 105 155 85 190 85 L360 85 C395 85 425 105 425 140 L425 270 C425 305 395 325 360 325 L245 325 L160 395 L180 325 L150 325 C130 325 125 305 125 270 Z"
        fill="#2d2d2d" transform="translate(14, 14)"/>
  <!-- Main Sketch Chat Bubble -->
  <path d="M120 135 C120 100 150 80 185 80 L355 80 C390 80 420 100 420 135 L420 265 C420 300 390 320 355 320 L240 320 L155 390 L175 320 L145 320 C125 320 120 300 120 265 Z"
        fill="#ffffff" stroke="#2d2d2d" stroke-width="16" stroke-linejoin="round"/>
  <!-- Chat Dots -->
  <circle cx="205" cy="200" r="24" fill="#ff4d4d" stroke="#2d2d2d" stroke-width="6"/>
  <circle cx="270" cy="200" r="24" fill="#2d2d2d"/>
  <circle cx="335" cy="200" r="24" fill="#2d5da1" stroke="#2d2d2d" stroke-width="6"/>
</svg>